<svg width="100" height="31" viewBox="0 0 100 31" fill="none" xmlns="http://www.w3.org/2000/svg">
<path d="M15.6689 25.3378C21.0089 25.3378 25.3378 21.0089 25.3378 15.6689C25.3378 10.3289 21.0089 6 15.6689 6C10.3289 6 6 10.3289 6 15.6689C6 21.0089 10.3289 25.3378 15.6689 25.3378Z" fill="#00AED6"/>
<path fill-rule="evenodd" clip-rule="evenodd" d="M21.2866 15.3466C21.1945 14.1035 20.1816 13.1826 18.9385 13.2287H12.8609C12.6307 13.2287 12.4465 13.0445 12.4465 12.8143C12.4465 12.5841 12.6307 12.3999 12.8609 12.3999H19.0306C18.9845 11.6172 18.386 10.7424 17.6033 10.6043C15.8076 10.282 13.9659 10.282 12.1703 10.6043C11.1573 10.7424 10.4207 11.7553 10.2365 12.7683C9.96023 14.656 9.96023 16.5898 10.2365 18.4775C10.3746 19.4904 11.3875 20.5034 12.4465 20.6415C14.7026 20.9177 16.9587 20.9177 19.1687 20.6415C20.1816 20.5034 20.8262 19.6286 21.0564 18.6156C21.2406 17.5567 21.3327 16.4056 21.2866 15.3466ZM19.2608 16.6819V17.0502C19.2608 17.2804 19.0766 17.4646 18.8464 17.4646C18.6162 17.4646 18.432 17.2804 18.432 17.0502V16.6819C18.2939 16.5898 18.2478 16.4056 18.2478 16.2214C18.2478 15.8991 18.5241 15.6229 18.8464 15.6229C19.1687 15.6229 19.4449 15.8991 19.4449 16.2214C19.491 16.4516 19.3989 16.5898 19.2608 16.6819Z" fill="white"/>
<path d="M53.2843 14.5638C53.2843 12.8142 52.0872 11.525 50.2455 11.525C48.3578 11.525 47.2068 12.8142 47.2068 14.5638C47.2068 16.3134 48.4039 17.6026 50.2455 17.6026C52.0872 17.6026 53.2843 16.3134 53.2843 14.5638ZM44.168 14.5638C44.168 11.3409 46.7003 8.90063 50.2455 8.90063C53.7908 8.90063 56.3231 11.3869 56.3231 14.5638C56.3231 17.7408 53.7908 20.227 50.1995 20.227C46.7003 20.227 44.168 17.7868 44.168 14.5638Z" fill="black"/>
<path d="M39.3335 15.1624C39.3335 16.4976 37.9982 17.5566 36.2947 17.5566C34.3609 17.5566 33.1638 16.4055 33.1638 14.5178C33.1638 12.7682 34.453 11.5711 36.4328 11.5711C37.9982 11.5711 39.3795 12.6761 39.3795 13.9192V15.1624H39.3335ZM39.4716 8.90063V10.1438H39.4255C38.6428 9.31502 37.3536 8.90063 35.8342 8.90063C32.5652 8.90063 30.125 11.3409 30.125 14.5178C30.125 17.7868 32.6113 20.227 35.9263 20.227C37.3997 20.227 38.6428 19.7666 39.4255 18.9379H39.4716V20.0429C39.4716 21.5162 38.2284 22.5752 36.5249 22.5752C34.8213 22.5752 33.8544 22.1148 32.9796 21.286L31.0458 23.1737C32.335 24.555 34.3148 25.3377 36.5709 25.3377C39.978 25.3377 42.3262 23.0356 42.3262 19.9968V8.94668H39.4716V8.90063Z" fill="black"/>
<path d="M58.0723 9.17676H60.9729V10.1437H61.019C61.8477 9.31489 63.0909 8.90051 64.4721 8.90051C67.557 8.85447 70.0893 11.4328 70.0433 14.5637C70.0893 17.7406 67.603 20.319 64.4721 20.2269C63.1369 20.2269 61.8017 19.7665 61.1111 19.0759H61.065V24.4628H58.0723V9.17676V9.17676ZM64.0117 11.5249C62.4463 11.5249 61.1111 12.6299 61.1111 13.8731V15.2083C61.1111 16.4975 62.4002 17.5565 64.0578 17.5565C65.8534 17.5565 67.0966 16.3133 67.0966 14.5177C67.0505 12.7681 65.8074 11.5249 64.0117 11.5249Z" fill="black"/>
<path d="M75.7066 13.5509C77.6865 13.2747 78.239 12.9984 78.239 12.4459C78.239 11.7553 77.5023 11.2948 76.3512 11.2948C74.97 11.2948 73.957 12.0315 73.6808 13.2286L70.8262 12.6301C71.2406 10.42 73.4966 8.90063 76.2592 8.90063C79.39 8.90063 81.3238 10.5121 81.3238 13.1365V19.9508H78.6073V18.7537H78.5613C77.9167 19.6745 76.5354 20.227 74.9239 20.227C72.5758 20.227 70.9183 18.9379 70.9183 17.0041C70.9643 15.0243 72.2995 14.0113 75.7066 13.5509ZM78.4692 14.6559C78.1469 15.0243 77.5944 15.2545 76.121 15.5307C74.3714 15.853 73.7268 16.2214 73.7268 16.8199C73.7268 17.4645 74.2333 17.7408 75.3844 17.7408C77.0879 17.7408 78.4231 16.958 78.4231 15.8991V14.6559H78.4692Z" fill="black"/>
<path d="M86.7586 19.3521L81.832 9.17676H85.1471L88.4161 16.1752H88.4621L91.6851 9.17676H95.0001L87.5413 24.4628H84.2262L86.7586 19.3521Z" fill="black"/>
</svg>
